<?xml version="1.0" encoding="utf-8"?>
<!-- Generator: Adobe Illustrator 19.2.1, SVG Export Plug-In . SVG Version: 6.00 Build 0)  -->
<svg version="1.1" xmlns="http://www.w3.org/2000/svg" xmlns:xlink="http://www.w3.org/1999/xlink" x="0px" y="0px"
	 viewBox="0 0 32 32" style="enable-background:new 0 0 32 32;" xml:space="preserve">
<style type="text/css">
	.st0{fill:#48A2DF;}
	.st1{fill:#FFFFFF;}
</style>
<g id="Layer_1">
	<g>
		<title>book</title>
		<circle class="st0" cx="16" cy="16" r="16"/>
		<g id="XMLID_5_">
			<g>
				<path class="st1" d="M4.8,22.4c0-2.3-0.1-13.5,0.1-13.7c0.2-0.2,2.6-1.4,5.6-1.4c1.2,0,2.5,0.2,3.6,0.6l1.3,0.4l1.3-0.4
					c1.2-0.4,2.4-0.6,3.6-0.6c3.1,0,5.4,1.2,5.6,1.4c0.2,0.2,0.1,11.5,0.1,13.7C26.1,23,25.6,23,25.5,23h0l-10,0.1h0L5.4,23h0
					C5.4,23,4.8,23,4.8,22.4z"/>
			</g>
			<g>
			</g>
		</g>
	</g>
</g>
<g id="Layer_2">
	<path class="st0" d="M24,19.1v-1c0,0-4.1-1.8-7.3,0.1l0,0.9C16.7,19.1,19.8,17.4,24,19.1z"/>
	<path class="st0" d="M24,17.1v-1c0,0-4.1-1.8-7.3,0.1l0,0.9C16.7,17.1,19.8,15.5,24,17.1z"/>
	<path class="st0" d="M24.1,15.2v-1c0,0-4.1-1.8-7.3,0.1l0,0.9C16.7,15.2,19.8,13.5,24.1,15.2z"/>
	<path class="st0" d="M24.1,13.3v-1c0,0-4.1-1.8-7.3,0.1l0,0.9C16.7,13.3,19.8,11.6,24.1,13.3z"/>
	<path class="st0" d="M24.1,11.3v-1c0,0-4.1-1.8-7.3,0.1l0,0.9C16.7,11.3,19.8,9.7,24.1,11.3z"/>
	<path class="st0" d="M14.2,19.1v-1c0,0-4.1-1.8-7.3,0.1l0,0.9C6.8,19.1,10,17.4,14.2,19.1z"/>
	<path class="st0" d="M14.2,17.1v-1c0,0-4.1-1.8-7.3,0.1l0,0.9C6.8,17.1,10,15.5,14.2,17.1z"/>
	<path class="st0" d="M14.2,15.2v-1c0,0-4.1-1.8-7.3,0.1l0,0.9C6.9,15.2,10,13.5,14.2,15.2z"/>
	<path class="st0" d="M14.2,13.3v-1c0,0-4.1-1.8-7.3,0.1l0,0.9C6.9,13.3,10,11.6,14.2,13.3z"/>
	<path class="st0" d="M14.2,11.3v-1c0,0-4.1-1.8-7.3,0.1l0,0.9C6.9,11.3,10,9.7,14.2,11.3z"/>
</g>
</svg>
