<?xml version="1.0" encoding="utf-8"?>
<!-- Generator: Adobe Illustrator 19.1.0, SVG Export Plug-In . SVG Version: 6.00 Build 0)  -->
<svg version="1.1" id="Layer_1" xmlns="http://www.w3.org/2000/svg" xmlns:xlink="http://www.w3.org/1999/xlink" x="0px" y="0px"
	 viewBox="822 -205 599 156" style="enable-background:new 822 -205 599 156;" xml:space="preserve">
<style type="text/css">
	.st0{enable-background:new    ;}
	.st1{fill:white;}
</style>
<g class="st0">
	<path class="st1" d="M849.6-104v-10.6h2.2v8.8h5.4v1.8H849.6z"/>
	<path class="st1" d="M863.2-106.5l2.1,0.3c-0.3,0.8-0.7,1.3-1.2,1.7c-0.6,0.4-1.3,0.6-2.1,0.6c-1.4,0-2.4-0.4-3-1.3
		c-0.5-0.7-0.8-1.6-0.8-2.7c0-1.3,0.3-2.3,1-3c0.7-0.7,1.5-1.1,2.6-1.1c1.2,0,2.1,0.4,2.7,1.1c0.7,0.8,1,1.9,1,3.5h-5.2
		c0,0.6,0.2,1.1,0.5,1.4c0.3,0.3,0.7,0.5,1.2,0.5c0.3,0,0.6-0.1,0.8-0.3S863.1-106.1,863.2-106.5z M863.3-108.6c0-0.6-0.2-1-0.5-1.4
		c-0.3-0.3-0.6-0.5-1.1-0.5c-0.4,0-0.8,0.2-1.1,0.5s-0.4,0.8-0.4,1.3H863.3z"/>
	<path class="st1" d="M874.1-104h-2.1v-4c0-0.8,0-1.4-0.1-1.6c-0.1-0.2-0.2-0.4-0.4-0.6c-0.2-0.1-0.4-0.2-0.7-0.2
		c-0.4,0-0.7,0.1-1,0.3s-0.5,0.5-0.6,0.8s-0.2,0.9-0.2,1.8v3.5H867v-7.8h1.9v1.1c0.7-0.9,1.5-1.3,2.6-1.3c0.5,0,0.9,0.1,1.2,0.2
		c0.4,0.2,0.7,0.4,0.9,0.6c0.2,0.3,0.3,0.5,0.4,0.9s0.1,0.8,0.1,1.4V-104z"/>
	<path class="st1" d="M876-103.5l2.4,0.3c0,0.3,0.1,0.5,0.3,0.6c0.2,0.1,0.5,0.2,0.9,0.2c0.5,0,0.9-0.1,1.2-0.2
		c0.2-0.1,0.3-0.3,0.4-0.5c0.1-0.2,0.1-0.5,0.1-0.9v-1.1c-0.6,0.8-1.4,1.3-2.3,1.3c-1,0-1.9-0.4-2.5-1.3c-0.5-0.7-0.7-1.6-0.7-2.6
		c0-1.3,0.3-2.3,0.9-3c0.6-0.7,1.4-1,2.3-1c1,0,1.8,0.4,2.4,1.3v-1.1h1.9v7c0,0.9-0.1,1.6-0.2,2.1s-0.4,0.8-0.6,1.1
		s-0.6,0.5-1.1,0.6c-0.5,0.1-1,0.2-1.7,0.2c-1.3,0-2.3-0.2-2.8-0.7c-0.6-0.5-0.8-1-0.8-1.7C876-103.3,876-103.4,876-103.5z
		 M877.9-108.1c0,0.8,0.2,1.4,0.5,1.8c0.3,0.4,0.7,0.6,1.2,0.6c0.5,0,0.9-0.2,1.3-0.6c0.3-0.4,0.5-1,0.5-1.7c0-0.8-0.2-1.4-0.5-1.8
		s-0.8-0.6-1.3-0.6c-0.5,0-0.9,0.2-1.2,0.6C878-109.4,877.9-108.8,877.9-108.1z"/>
	<path class="st1" d="M890.5-104v-1.2c-0.3,0.4-0.7,0.7-1.1,1c-0.5,0.2-0.9,0.4-1.5,0.4c-0.5,0-1-0.1-1.4-0.3
		c-0.4-0.2-0.7-0.6-0.9-1s-0.3-1-0.3-1.7v-4.9h2.1v3.6c0,1.1,0,1.8,0.1,2c0.1,0.2,0.2,0.4,0.4,0.6c0.2,0.1,0.5,0.2,0.8,0.2
		c0.4,0,0.7-0.1,0.9-0.3c0.3-0.2,0.5-0.4,0.6-0.7c0.1-0.3,0.2-1,0.2-2.1v-3.3h2.1v7.8H890.5z"/>
	<path class="st1" d="M896.1-109.4l-1.9-0.3c0.2-0.8,0.6-1.3,1.1-1.7s1.3-0.5,2.3-0.5c0.9,0,1.6,0.1,2.1,0.3
		c0.4,0.2,0.8,0.5,0.9,0.8c0.2,0.3,0.3,0.9,0.3,1.8l0,2.4c0,0.7,0,1.2,0.1,1.5c0.1,0.3,0.2,0.7,0.4,1h-2c-0.1-0.1-0.1-0.3-0.2-0.6
		c0-0.1-0.1-0.2-0.1-0.2c-0.4,0.3-0.7,0.6-1.1,0.8c-0.4,0.2-0.8,0.3-1.3,0.3c-0.8,0-1.4-0.2-1.9-0.7c-0.5-0.4-0.7-1-0.7-1.6
		c0-0.4,0.1-0.8,0.3-1.2c0.2-0.3,0.5-0.6,0.9-0.8c0.4-0.2,0.9-0.3,1.6-0.5c1-0.2,1.6-0.3,2-0.5v-0.2c0-0.4-0.1-0.7-0.3-0.8
		c-0.2-0.2-0.6-0.3-1.1-0.3c-0.4,0-0.7,0.1-0.9,0.2C896.4-110,896.2-109.8,896.1-109.4z M898.8-107.7c-0.3,0.1-0.7,0.2-1.3,0.3
		s-0.9,0.2-1.1,0.4c-0.3,0.2-0.4,0.4-0.4,0.7c0,0.3,0.1,0.5,0.3,0.7c0.2,0.2,0.5,0.3,0.8,0.3c0.4,0,0.7-0.1,1.1-0.4
		c0.2-0.2,0.4-0.4,0.5-0.7c0.1-0.2,0.1-0.5,0.1-1V-107.7z"/>
	<path class="st1" d="M904.9-111.8v7.5c0,1-0.1,1.7-0.2,2.1c-0.1,0.4-0.4,0.7-0.7,1s-0.8,0.3-1.4,0.3c-0.2,0-0.4,0-0.7-0.1
		c-0.2,0-0.5-0.1-0.8-0.2l0.4-1.8c0.1,0,0.2,0,0.3,0c0.1,0,0.2,0,0.2,0c0.2,0,0.4,0,0.5-0.1c0.1-0.1,0.2-0.2,0.3-0.3
		s0.1-0.5,0.1-1.1v-7.4H904.9z M902.8-112.8v-1.9h2.1v1.9H902.8z"/>
	<path class="st1" d="M911.6-106.5l2.1,0.3c-0.3,0.8-0.7,1.3-1.2,1.7c-0.6,0.4-1.3,0.6-2.1,0.6c-1.4,0-2.4-0.4-3-1.3
		c-0.5-0.7-0.8-1.6-0.8-2.7c0-1.3,0.3-2.3,1-3c0.7-0.7,1.5-1.1,2.6-1.1c1.2,0,2.1,0.4,2.7,1.1c0.7,0.8,1,1.9,1,3.5h-5.2
		c0,0.6,0.2,1.1,0.5,1.4c0.3,0.3,0.7,0.5,1.2,0.5c0.3,0,0.6-0.1,0.8-0.3S911.4-106.1,911.6-106.5z M911.7-108.6c0-0.6-0.2-1-0.5-1.4
		c-0.3-0.3-0.6-0.5-1.1-0.5c-0.4,0-0.8,0.2-1.1,0.5s-0.4,0.8-0.4,1.3H911.7z"/>
	<path class="st1" d="M926.7-104h-1.9v-1.1c-0.3,0.4-0.7,0.8-1.1,1c-0.4,0.2-0.9,0.3-1.3,0.3c-0.9,0-1.7-0.4-2.3-1.1
		c-0.6-0.7-1-1.7-1-3c0-1.3,0.3-2.3,0.9-3c0.6-0.7,1.4-1,2.4-1c0.9,0,1.6,0.4,2.3,1.1v-3.9h2.1V-104z M921.2-108.1
		c0,0.8,0.1,1.4,0.3,1.8c0.3,0.5,0.8,0.8,1.4,0.8c0.5,0,0.9-0.2,1.2-0.6c0.3-0.4,0.5-1,0.5-1.8c0-0.9-0.2-1.5-0.5-1.9
		c-0.3-0.4-0.7-0.6-1.2-0.6c-0.5,0-0.9,0.2-1.2,0.6C921.4-109.4,921.2-108.8,921.2-108.1z"/>
	<path class="st1" d="M933.2-106.5l2.1,0.3c-0.3,0.8-0.7,1.3-1.2,1.7c-0.6,0.4-1.3,0.6-2.1,0.6c-1.4,0-2.4-0.4-3-1.3
		c-0.5-0.7-0.8-1.6-0.8-2.7c0-1.3,0.3-2.3,1-3c0.7-0.7,1.5-1.1,2.6-1.1c1.2,0,2.1,0.4,2.7,1.1c0.7,0.8,1,1.9,1,3.5h-5.2
		c0,0.6,0.2,1.1,0.5,1.4c0.3,0.3,0.7,0.5,1.2,0.5c0.3,0,0.6-0.1,0.8-0.3S933.1-106.1,933.2-106.5z M933.3-108.6c0-0.6-0.2-1-0.5-1.4
		c-0.3-0.3-0.6-0.5-1.1-0.5c-0.5,0-0.8,0.2-1.1,0.5s-0.4,0.8-0.4,1.3H933.3z"/>
	<path class="st1" d="M941.2-104v-10.7h3.2l1.9,7.3l1.9-7.3h3.3v10.7h-2v-8.5l-2.1,8.5h-2.1l-2.1-8.5v8.5H941.2z"/>
	<path class="st1" d="M955.3-109.4l-1.9-0.3c0.2-0.8,0.6-1.3,1.1-1.7s1.3-0.5,2.3-0.5c0.9,0,1.6,0.1,2.1,0.3
		c0.4,0.2,0.8,0.5,0.9,0.8c0.2,0.3,0.3,0.9,0.3,1.8l0,2.4c0,0.7,0,1.2,0.1,1.5c0.1,0.3,0.2,0.7,0.4,1h-2c-0.1-0.1-0.1-0.3-0.2-0.6
		c0-0.1-0.1-0.2-0.1-0.2c-0.4,0.3-0.7,0.6-1.1,0.8c-0.4,0.2-0.8,0.3-1.3,0.3c-0.8,0-1.4-0.2-1.9-0.7c-0.5-0.4-0.7-1-0.7-1.6
		c0-0.4,0.1-0.8,0.3-1.2c0.2-0.3,0.5-0.6,0.9-0.8c0.4-0.2,0.9-0.3,1.6-0.5c1-0.2,1.6-0.3,2-0.5v-0.2c0-0.4-0.1-0.7-0.3-0.8
		c-0.2-0.2-0.6-0.3-1.1-0.3c-0.4,0-0.7,0.1-0.9,0.2C955.6-110,955.4-109.8,955.3-109.4z M958-107.7c-0.3,0.1-0.7,0.2-1.3,0.3
		s-0.9,0.2-1.1,0.4c-0.3,0.2-0.4,0.4-0.4,0.7c0,0.3,0.1,0.5,0.3,0.7c0.2,0.2,0.5,0.3,0.8,0.3c0.4,0,0.7-0.1,1.1-0.4
		c0.2-0.2,0.4-0.4,0.5-0.7c0.1-0.2,0.1-0.5,0.1-1V-107.7z"/>
	<path class="st1" d="M964-104H962v-7.8h1.9v1.1c0.3-0.5,0.6-0.9,0.9-1c0.3-0.2,0.6-0.2,0.9-0.2c0.5,0,0.9,0.1,1.4,0.4l-0.6,1.8
		c-0.3-0.2-0.7-0.3-1-0.3c-0.3,0-0.5,0.1-0.7,0.2c-0.2,0.2-0.4,0.4-0.5,0.9c-0.1,0.4-0.2,1.3-0.2,2.6V-104z"/>
	<path class="st1" d="M974.7-109.5l-2,0.4c-0.1-0.4-0.2-0.7-0.5-0.9c-0.2-0.2-0.6-0.3-0.9-0.3c-0.5,0-0.9,0.2-1.2,0.5
		c-0.3,0.4-0.5,0.9-0.5,1.8c0,0.9,0.2,1.6,0.5,2c0.3,0.4,0.7,0.6,1.2,0.6c0.4,0,0.7-0.1,1-0.3c0.2-0.2,0.4-0.6,0.5-1.1l2,0.3
		c-0.2,0.9-0.6,1.6-1.2,2.1c-0.6,0.5-1.4,0.7-2.4,0.7c-1.1,0-2-0.4-2.7-1.1c-0.7-0.7-1-1.7-1-3c0-1.3,0.3-2.3,1-3
		c0.7-0.7,1.6-1.1,2.8-1.1c0.9,0,1.7,0.2,2.3,0.6C974-110.9,974.4-110.3,974.7-109.5z"/>
	<path class="st1" d="M977.8-109.4l-1.9-0.3c0.2-0.8,0.6-1.3,1.1-1.7s1.3-0.5,2.3-0.5c0.9,0,1.6,0.1,2.1,0.3
		c0.4,0.2,0.8,0.5,0.9,0.8c0.2,0.3,0.3,0.9,0.3,1.8l0,2.4c0,0.7,0,1.2,0.1,1.5c0.1,0.3,0.2,0.7,0.4,1h-2c-0.1-0.1-0.1-0.3-0.2-0.6
		c0-0.1-0.1-0.2-0.1-0.2c-0.4,0.3-0.7,0.6-1.1,0.8c-0.4,0.2-0.8,0.3-1.3,0.3c-0.8,0-1.4-0.2-1.9-0.7c-0.5-0.4-0.7-1-0.7-1.6
		c0-0.4,0.1-0.8,0.3-1.2c0.2-0.3,0.5-0.6,0.9-0.8c0.4-0.2,0.9-0.3,1.6-0.5c1-0.2,1.6-0.3,2-0.5v-0.2c0-0.4-0.1-0.7-0.3-0.8
		c-0.2-0.2-0.6-0.3-1.1-0.3c-0.4,0-0.7,0.1-0.9,0.2C978.1-110,977.9-109.8,977.8-109.4z M980.5-107.7c-0.3,0.1-0.7,0.2-1.3,0.3
		s-0.9,0.2-1.1,0.4c-0.3,0.2-0.4,0.4-0.4,0.7c0,0.3,0.1,0.5,0.3,0.7c0.2,0.2,0.5,0.3,0.8,0.3c0.4,0,0.7-0.1,1.1-0.4
		c0.2-0.2,0.4-0.4,0.5-0.7c0.1-0.2,0.1-0.5,0.1-1V-107.7z"/>
	<path class="st1" d="M995.9-104H994v-1.1c-0.3,0.4-0.7,0.8-1.1,1c-0.4,0.2-0.9,0.3-1.3,0.3c-0.9,0-1.7-0.4-2.3-1.1
		c-0.6-0.7-1-1.7-1-3c0-1.3,0.3-2.3,0.9-3c0.6-0.7,1.4-1,2.4-1c0.9,0,1.6,0.4,2.3,1.1v-3.9h2.1V-104z M990.4-108.1
		c0,0.8,0.1,1.4,0.3,1.8c0.3,0.5,0.8,0.8,1.4,0.8c0.5,0,0.9-0.2,1.2-0.6c0.3-0.4,0.5-1,0.5-1.8c0-0.9-0.2-1.5-0.5-1.9
		c-0.3-0.4-0.7-0.6-1.2-0.6c-0.5,0-0.9,0.2-1.2,0.6C990.6-109.4,990.4-108.8,990.4-108.1z"/>
	<path class="st1" d="M1002.4-106.5l2.1,0.3c-0.3,0.8-0.7,1.3-1.2,1.7c-0.6,0.4-1.3,0.6-2.1,0.6c-1.4,0-2.4-0.4-3-1.3
		c-0.5-0.7-0.8-1.6-0.8-2.7c0-1.3,0.3-2.3,1-3c0.7-0.7,1.5-1.1,2.6-1.1c1.2,0,2.1,0.4,2.7,1.1c0.7,0.8,1,1.9,1,3.5h-5.2
		c0,0.6,0.2,1.1,0.5,1.4c0.3,0.3,0.7,0.5,1.2,0.5c0.3,0,0.6-0.1,0.8-0.3S1002.3-106.1,1002.4-106.5z M1002.5-108.6
		c0-0.6-0.2-1-0.5-1.4c-0.3-0.3-0.6-0.5-1.1-0.5c-0.5,0-0.8,0.2-1.1,0.5s-0.4,0.8-0.4,1.3H1002.5z"/>
	<path class="st1" d="M1010.5-104v-10.7h2.2v4.2h4.2v-4.2h2.2v10.7h-2.2v-4.7h-4.2v4.7H1010.5z"/>
	<path class="st1" d="M1021.3-112.8v-1.9h2.1v1.9H1021.3z M1021.3-104v-7.8h2.1v7.8H1021.3z"/>
	<path class="st1" d="M1025.4-111.8h1.9v1.1c0.2-0.4,0.6-0.7,1-1c0.4-0.2,0.9-0.4,1.4-0.4c0.9,0,1.7,0.4,2.3,1.1
		c0.6,0.7,0.9,1.7,0.9,3c0,1.3-0.3,2.3-1,3c-0.6,0.7-1.4,1.1-2.3,1.1c-0.4,0-0.8-0.1-1.2-0.3c-0.3-0.2-0.7-0.5-1.1-0.9v3.9h-2.1
		V-111.8z M1027.4-108c0,0.9,0.2,1.5,0.5,1.9c0.3,0.4,0.8,0.6,1.3,0.6c0.5,0,0.9-0.2,1.2-0.6c0.3-0.4,0.5-1,0.5-1.9
		c0-0.8-0.2-1.4-0.5-1.8c-0.3-0.4-0.7-0.6-1.2-0.6c-0.5,0-0.9,0.2-1.3,0.6C1027.6-109.4,1027.4-108.8,1027.4-108z"/>
	<path class="st1" d="M1039.1-106.5l2.1,0.3c-0.3,0.8-0.7,1.3-1.2,1.7c-0.6,0.4-1.3,0.6-2.1,0.6c-1.4,0-2.4-0.4-3-1.3
		c-0.5-0.7-0.8-1.6-0.8-2.7c0-1.3,0.3-2.3,1-3c0.7-0.7,1.5-1.1,2.6-1.1c1.2,0,2.1,0.4,2.7,1.1c0.7,0.8,1,1.9,1,3.5h-5.2
		c0,0.6,0.2,1.1,0.5,1.4c0.3,0.3,0.7,0.5,1.2,0.5c0.3,0,0.6-0.1,0.8-0.3S1039-106.1,1039.1-106.5z M1039.2-108.6
		c0-0.6-0.2-1-0.5-1.4c-0.3-0.3-0.6-0.5-1.1-0.5c-0.5,0-0.8,0.2-1.1,0.5s-0.4,0.8-0.4,1.3H1039.2z"/>
	<path class="st1" d="M1044.9-104h-2.1v-7.8h1.9v1.1c0.3-0.5,0.6-0.9,0.9-1c0.3-0.2,0.6-0.2,0.9-0.2c0.5,0,0.9,0.1,1.4,0.4l-0.6,1.8
		c-0.3-0.2-0.7-0.3-1-0.3c-0.3,0-0.5,0.1-0.7,0.2c-0.2,0.2-0.4,0.4-0.5,0.9c-0.1,0.4-0.2,1.3-0.2,2.6V-104z"/>
	<path class="st1" d="M1052.3-111.8v1.6h-1.4v3.1c0,0.6,0,1,0,1.1c0,0.1,0.1,0.2,0.2,0.3c0.1,0.1,0.2,0.1,0.3,0.1
		c0.2,0,0.5-0.1,0.8-0.2l0.2,1.6c-0.5,0.2-1,0.3-1.6,0.3c-0.4,0-0.7-0.1-1-0.2c-0.3-0.1-0.5-0.3-0.7-0.5c-0.1-0.2-0.2-0.5-0.3-0.8
		c0-0.2-0.1-0.7-0.1-1.4v-3.4h-0.9v-1.6h0.9v-1.5l2.1-1.2v2.7H1052.3z"/>
	<path class="st1" d="M1058.3-106.5l2.1,0.3c-0.3,0.8-0.7,1.3-1.2,1.7c-0.6,0.4-1.3,0.6-2.1,0.6c-1.4,0-2.4-0.4-3-1.3
		c-0.5-0.7-0.8-1.6-0.8-2.7c0-1.3,0.3-2.3,1-3c0.7-0.7,1.5-1.1,2.6-1.1c1.2,0,2.1,0.4,2.7,1.1c0.7,0.8,1,1.9,1,3.5h-5.2
		c0,0.6,0.2,1.1,0.5,1.4c0.3,0.3,0.7,0.5,1.2,0.5c0.3,0,0.6-0.1,0.8-0.3S1058.2-106.1,1058.3-106.5z M1058.4-108.6
		c0-0.6-0.2-1-0.5-1.4c-0.3-0.3-0.6-0.5-1.1-0.5c-0.5,0-0.8,0.2-1.1,0.5s-0.4,0.8-0.4,1.3H1058.4z"/>
	<path class="st1" d="M1061.1-104l2.8-4l-2.7-3.8h2.5l1.4,2.1l1.5-2.1h2.4l-2.6,3.7l2.9,4.1h-2.5l-1.6-2.4l-1.6,2.4H1061.1z"/>
	<path class="st1" d="M1074-111.8v1.6h-1.4v3.1c0,0.6,0,1,0,1.1c0,0.1,0.1,0.2,0.2,0.3c0.1,0.1,0.2,0.1,0.3,0.1
		c0.2,0,0.5-0.1,0.8-0.2l0.2,1.6c-0.5,0.2-1,0.3-1.6,0.3c-0.4,0-0.7-0.1-1-0.2c-0.3-0.1-0.5-0.3-0.7-0.5c-0.1-0.2-0.2-0.5-0.3-0.8
		c0-0.2-0.1-0.7-0.1-1.4v-3.4h-0.9v-1.6h0.9v-1.5l2.1-1.2v2.7H1074z"/>
	<path class="st1" d="M1075-108c0-0.7,0.2-1.3,0.5-2c0.3-0.6,0.8-1.1,1.4-1.5c0.6-0.3,1.3-0.5,2.1-0.5c1.2,0,2.1,0.4,2.9,1.1
		c0.8,0.8,1.1,1.7,1.1,2.9c0,1.2-0.4,2.2-1.1,2.9c-0.8,0.8-1.7,1.2-2.9,1.2c-0.7,0-1.4-0.2-2-0.5c-0.6-0.3-1.1-0.8-1.5-1.4
		C1075.1-106.3,1075-107.1,1075-108z M1077.1-107.9c0,0.8,0.2,1.4,0.5,1.8c0.4,0.4,0.8,0.6,1.4,0.6s1-0.2,1.4-0.6
		c0.4-0.4,0.5-1,0.5-1.8c0-0.8-0.2-1.3-0.5-1.8c-0.4-0.4-0.8-0.6-1.4-0.6s-1,0.2-1.4,0.6C1077.3-109.3,1077.1-108.7,1077.1-107.9z"
		/>
</g>
<g class="st0">
	<path class="st1" d="M1167.6-140v-10.7h2.2v4.2h4.2v-4.2h2.2v10.7h-2.2v-4.7h-4.2v4.7H1167.6z"/>
	<path class="st1" d="M1177.5-147.8h2.2l1.9,5.5l1.8-5.5h2.1l-2.7,7.5l-0.5,1.4c-0.2,0.5-0.4,0.8-0.5,1s-0.4,0.4-0.6,0.6
		c-0.2,0.1-0.5,0.3-0.8,0.3s-0.7,0.1-1.1,0.1c-0.4,0-0.8,0-1.2-0.1l-0.2-1.6c0.3,0.1,0.6,0.1,0.9,0.1c0.5,0,0.8-0.1,1.1-0.4
		c0.2-0.3,0.4-0.6,0.5-1.1L1177.5-147.8z"/>
	<path class="st1" d="M1186.7-147.8h1.9v1.1c0.2-0.4,0.6-0.7,1-1s0.9-0.4,1.4-0.4c0.9,0,1.7,0.4,2.3,1.1c0.6,0.7,0.9,1.7,0.9,3
		c0,1.3-0.3,2.3-1,3c-0.6,0.7-1.4,1.1-2.3,1.1c-0.4,0-0.8-0.1-1.2-0.3c-0.3-0.2-0.7-0.5-1.1-0.9v3.9h-2.1V-147.8z M1188.8-144
		c0,0.9,0.2,1.5,0.5,1.9c0.3,0.4,0.8,0.6,1.3,0.6c0.5,0,0.9-0.2,1.2-0.6c0.3-0.4,0.5-1,0.5-1.9c0-0.8-0.2-1.4-0.5-1.8
		c-0.3-0.4-0.7-0.6-1.2-0.6c-0.5,0-0.9,0.2-1.3,0.6C1188.9-145.4,1188.8-144.8,1188.8-144z"/>
	<path class="st1" d="M1200.5-142.5l2.1,0.3c-0.3,0.8-0.7,1.3-1.2,1.7c-0.6,0.4-1.3,0.6-2.1,0.6c-1.4,0-2.4-0.4-3-1.3
		c-0.5-0.7-0.8-1.6-0.8-2.7c0-1.3,0.3-2.3,1-3c0.7-0.7,1.5-1.1,2.6-1.1c1.2,0,2.1,0.4,2.7,1.1c0.7,0.8,1,1.9,1,3.5h-5.2
		c0,0.6,0.2,1.1,0.5,1.4c0.3,0.3,0.7,0.5,1.2,0.5c0.3,0,0.6-0.1,0.8-0.3S1200.3-142.1,1200.5-142.5z M1200.6-144.6
		c0-0.6-0.2-1-0.5-1.4c-0.3-0.3-0.7-0.5-1.1-0.5c-0.4,0-0.8,0.2-1.1,0.5s-0.4,0.8-0.4,1.3H1200.6z"/>
	<path class="st1" d="M1206.3-140h-2.1v-7.8h1.9v1.1c0.3-0.5,0.6-0.9,0.9-1c0.3-0.2,0.6-0.2,0.9-0.2c0.5,0,0.9,0.1,1.4,0.4l-0.6,1.8
		c-0.3-0.2-0.7-0.3-1-0.3c-0.3,0-0.5,0.1-0.7,0.2c-0.2,0.2-0.4,0.4-0.5,0.9c-0.1,0.4-0.2,1.3-0.2,2.6V-140z"/>
	<path class="st1" d="M1216.7-140v-8.9h-3.2v-1.8h8.5v1.8h-3.2v8.9H1216.7z"/>
	<path class="st1" d="M1226.8-142.5l2.1,0.3c-0.3,0.8-0.7,1.3-1.2,1.7c-0.6,0.4-1.3,0.6-2.1,0.6c-1.4,0-2.4-0.4-3-1.3
		c-0.5-0.7-0.8-1.6-0.8-2.7c0-1.3,0.3-2.3,1-3c0.7-0.7,1.5-1.1,2.6-1.1c1.2,0,2.1,0.4,2.7,1.1c0.7,0.8,1,1.9,1,3.5h-5.2
		c0,0.6,0.2,1.1,0.5,1.4c0.3,0.3,0.7,0.5,1.2,0.5c0.3,0,0.6-0.1,0.8-0.3S1226.7-142.1,1226.8-142.5z M1227-144.6
		c0-0.6-0.2-1-0.5-1.4c-0.3-0.3-0.7-0.5-1.1-0.5c-0.4,0-0.8,0.2-1.1,0.5s-0.4,0.8-0.4,1.3H1227z"/>
	<path class="st1" d="M1229.7-140l2.8-4l-2.7-3.8h2.5l1.4,2.1l1.5-2.1h2.4l-2.6,3.7l2.9,4.1h-2.5l-1.6-2.4l-1.6,2.4H1229.7z"/>
	<path class="st1" d="M1242.6-147.8v1.6h-1.4v3.1c0,0.6,0,1,0,1.1c0,0.1,0.1,0.2,0.2,0.3c0.1,0.1,0.2,0.1,0.3,0.1
		c0.2,0,0.5-0.1,0.8-0.2l0.2,1.6c-0.5,0.2-1,0.3-1.6,0.3c-0.4,0-0.7-0.1-1-0.2c-0.3-0.1-0.5-0.3-0.7-0.5c-0.1-0.2-0.2-0.5-0.3-0.8
		c0-0.2-0.1-0.7-0.1-1.4v-3.4h-0.9v-1.6h0.9v-1.5l2.1-1.2v2.7H1242.6z"/>
	<path class="st1" d="M1248.2-140v-10.7h3.2l1.9,7.3l1.9-7.3h3.3v10.7h-2v-8.5l-2.1,8.5h-2.1l-2.1-8.5v8.5H1248.2z"/>
	<path class="st1" d="M1262.2-145.4l-1.9-0.3c0.2-0.8,0.6-1.3,1.1-1.7c0.5-0.4,1.3-0.5,2.3-0.5c0.9,0,1.6,0.1,2.1,0.3
		c0.4,0.2,0.8,0.5,0.9,0.8c0.2,0.3,0.3,0.9,0.3,1.8l0,2.4c0,0.7,0,1.2,0.1,1.5c0.1,0.3,0.2,0.7,0.4,1h-2c-0.1-0.1-0.1-0.3-0.2-0.6
		c0-0.1-0.1-0.2-0.1-0.2c-0.4,0.3-0.7,0.6-1.1,0.8c-0.4,0.2-0.8,0.3-1.3,0.3c-0.8,0-1.4-0.2-1.9-0.7c-0.5-0.4-0.7-1-0.7-1.6
		c0-0.4,0.1-0.8,0.3-1.2c0.2-0.3,0.5-0.6,0.9-0.8c0.4-0.2,0.9-0.3,1.6-0.5c1-0.2,1.6-0.3,2-0.5v-0.2c0-0.4-0.1-0.7-0.3-0.8
		c-0.2-0.2-0.6-0.3-1.1-0.3c-0.4,0-0.7,0.1-0.9,0.2C1262.5-146,1262.4-145.8,1262.2-145.4z M1265-143.7c-0.3,0.1-0.7,0.2-1.3,0.3
		c-0.6,0.1-0.9,0.2-1.1,0.4c-0.3,0.2-0.4,0.4-0.4,0.7c0,0.3,0.1,0.5,0.3,0.7c0.2,0.2,0.5,0.3,0.8,0.3c0.4,0,0.7-0.1,1.1-0.4
		c0.2-0.2,0.4-0.4,0.5-0.7c0.1-0.2,0.1-0.5,0.1-1V-143.7z"/>
	<path class="st1" d="M1271-140h-2.1v-7.8h1.9v1.1c0.3-0.5,0.6-0.9,0.9-1c0.3-0.2,0.6-0.2,0.9-0.2c0.5,0,0.9,0.1,1.4,0.4l-0.6,1.8
		c-0.3-0.2-0.7-0.3-1-0.3c-0.3,0-0.5,0.1-0.7,0.2c-0.2,0.2-0.4,0.4-0.5,0.9s-0.2,1.3-0.2,2.6V-140z"/>
	<path class="st1" d="M1274.8-140v-10.7h2.1v5.7l2.4-2.7h2.5l-2.7,2.8l2.8,4.9h-2.2l-2-3.5l-1,1v2.5H1274.8z"/>
	<path class="st1" d="M1288.3-140v-1.2c-0.3,0.4-0.7,0.7-1.1,1c-0.5,0.2-0.9,0.4-1.5,0.4c-0.5,0-1-0.1-1.4-0.3
		c-0.4-0.2-0.7-0.6-0.9-1s-0.3-1-0.3-1.7v-4.9h2.1v3.6c0,1.1,0,1.8,0.1,2c0.1,0.2,0.2,0.4,0.4,0.6c0.2,0.1,0.5,0.2,0.8,0.2
		c0.4,0,0.7-0.1,0.9-0.3c0.3-0.2,0.5-0.4,0.6-0.7c0.1-0.3,0.2-1,0.2-2.1v-3.3h2.1v7.8H1288.3z"/>
	<path class="st1" d="M1292.3-147.8h1.9v1.1c0.2-0.4,0.6-0.7,1-1c0.4-0.2,0.9-0.4,1.4-0.4c0.9,0,1.7,0.4,2.3,1.1
		c0.6,0.7,0.9,1.7,0.9,3c0,1.3-0.3,2.3-1,3c-0.6,0.7-1.4,1.1-2.3,1.1c-0.4,0-0.8-0.1-1.2-0.3c-0.3-0.2-0.7-0.5-1.1-0.9v3.9h-2.1
		V-147.8z M1294.3-144c0,0.9,0.2,1.5,0.5,1.9c0.3,0.4,0.8,0.6,1.3,0.6c0.5,0,0.9-0.2,1.2-0.6c0.3-0.4,0.5-1,0.5-1.9
		c0-0.8-0.2-1.4-0.5-1.8c-0.3-0.4-0.7-0.6-1.2-0.6c-0.5,0-0.9,0.2-1.3,0.6C1294.5-145.4,1294.3-144.8,1294.3-144z"/>
	<path class="st1" d="M1305.8-140v-10.6h2.2v8.8h5.4v1.8H1305.8z"/>
	<path class="st1" d="M1316.4-145.4l-1.9-0.3c0.2-0.8,0.6-1.3,1.1-1.7c0.5-0.4,1.3-0.5,2.3-0.5c0.9,0,1.6,0.1,2.1,0.3
		c0.4,0.2,0.8,0.5,0.9,0.8c0.2,0.3,0.3,0.9,0.3,1.8l0,2.4c0,0.7,0,1.2,0.1,1.5c0.1,0.3,0.2,0.7,0.4,1h-2c-0.1-0.1-0.1-0.3-0.2-0.6
		c0-0.1-0.1-0.2-0.1-0.2c-0.4,0.3-0.7,0.6-1.1,0.8c-0.4,0.2-0.8,0.3-1.3,0.3c-0.8,0-1.4-0.2-1.9-0.7c-0.5-0.4-0.7-1-0.7-1.6
		c0-0.4,0.1-0.8,0.3-1.2c0.2-0.3,0.5-0.6,0.9-0.8c0.4-0.2,0.9-0.3,1.6-0.5c1-0.2,1.6-0.3,2-0.5v-0.2c0-0.4-0.1-0.7-0.3-0.8
		c-0.2-0.2-0.6-0.3-1.1-0.3c-0.4,0-0.7,0.1-0.9,0.2C1316.7-146,1316.5-145.8,1316.4-145.4z M1319.2-143.7c-0.3,0.1-0.7,0.2-1.3,0.3
		c-0.6,0.1-0.9,0.2-1.1,0.4c-0.3,0.2-0.4,0.4-0.4,0.7c0,0.3,0.1,0.5,0.3,0.7c0.2,0.2,0.5,0.3,0.8,0.3c0.4,0,0.7-0.1,1.1-0.4
		c0.2-0.2,0.4-0.4,0.5-0.7c0.1-0.2,0.1-0.5,0.1-1V-143.7z"/>
	<path class="st1" d="M1330.3-140h-2.1v-4c0-0.8,0-1.4-0.1-1.6c-0.1-0.2-0.2-0.4-0.4-0.6s-0.4-0.2-0.7-0.2c-0.4,0-0.7,0.1-1,0.3
		s-0.5,0.5-0.6,0.8s-0.2,0.9-0.2,1.8v3.5h-2.1v-7.8h1.9v1.1c0.7-0.9,1.5-1.3,2.6-1.3c0.5,0,0.9,0.1,1.2,0.2c0.4,0.2,0.7,0.4,0.9,0.6
		s0.3,0.5,0.4,0.9c0.1,0.3,0.1,0.8,0.1,1.4V-140z"/>
	<path class="st1" d="M1332.2-139.5l2.3,0.3c0,0.3,0.1,0.5,0.3,0.6c0.2,0.1,0.5,0.2,0.9,0.2c0.5,0,0.9-0.1,1.2-0.2
		c0.2-0.1,0.3-0.3,0.4-0.5c0.1-0.2,0.1-0.5,0.1-0.9v-1.1c-0.6,0.8-1.4,1.3-2.3,1.3c-1,0-1.9-0.4-2.5-1.3c-0.5-0.7-0.7-1.6-0.7-2.6
		c0-1.3,0.3-2.3,0.9-3c0.6-0.7,1.4-1,2.3-1c1,0,1.8,0.4,2.4,1.3v-1.1h1.9v7c0,0.9-0.1,1.6-0.2,2.1c-0.2,0.5-0.4,0.8-0.6,1.1
		s-0.6,0.5-1.1,0.6c-0.5,0.1-1,0.2-1.7,0.2c-1.3,0-2.3-0.2-2.8-0.7c-0.6-0.5-0.8-1-0.8-1.7C1332.2-139.3,1332.2-139.4,1332.2-139.5z
		 M1334-144.1c0,0.8,0.2,1.4,0.5,1.8c0.3,0.4,0.7,0.6,1.2,0.6c0.5,0,0.9-0.2,1.3-0.6c0.3-0.4,0.5-1,0.5-1.7c0-0.8-0.2-1.4-0.5-1.8
		s-0.8-0.6-1.3-0.6c-0.5,0-0.9,0.2-1.2,0.6C1334.2-145.4,1334-144.8,1334-144.1z"/>
	<path class="st1" d="M1346.7-140v-1.2c-0.3,0.4-0.7,0.7-1.1,1c-0.5,0.2-0.9,0.4-1.5,0.4c-0.5,0-1-0.1-1.4-0.3
		c-0.4-0.2-0.7-0.6-0.9-1s-0.3-1-0.3-1.7v-4.9h2.1v3.6c0,1.1,0,1.8,0.1,2c0.1,0.2,0.2,0.4,0.4,0.6c0.2,0.1,0.5,0.2,0.8,0.2
		c0.4,0,0.7-0.1,0.9-0.3c0.3-0.2,0.5-0.4,0.6-0.7c0.1-0.3,0.2-1,0.2-2.1v-3.3h2.1v7.8H1346.7z"/>
	<path class="st1" d="M1352.2-145.4l-1.9-0.3c0.2-0.8,0.6-1.3,1.1-1.7c0.5-0.4,1.3-0.5,2.3-0.5c0.9,0,1.6,0.1,2.1,0.3
		c0.4,0.2,0.8,0.5,0.9,0.8c0.2,0.3,0.3,0.9,0.3,1.8l0,2.4c0,0.7,0,1.2,0.1,1.5c0.1,0.3,0.2,0.7,0.4,1h-2c-0.1-0.1-0.1-0.3-0.2-0.6
		c0-0.1-0.1-0.2-0.1-0.2c-0.4,0.3-0.7,0.6-1.1,0.8c-0.4,0.2-0.8,0.3-1.3,0.3c-0.8,0-1.4-0.2-1.9-0.7c-0.5-0.4-0.7-1-0.7-1.6
		c0-0.4,0.1-0.8,0.3-1.2c0.2-0.3,0.5-0.6,0.9-0.8c0.4-0.2,0.9-0.3,1.6-0.5c1-0.2,1.6-0.3,2-0.5v-0.2c0-0.4-0.1-0.7-0.3-0.8
		c-0.2-0.2-0.6-0.3-1.1-0.3c-0.4,0-0.7,0.1-0.9,0.2C1352.5-146,1352.4-145.8,1352.2-145.4z M1355-143.7c-0.3,0.1-0.7,0.2-1.3,0.3
		c-0.6,0.1-0.9,0.2-1.1,0.4c-0.3,0.2-0.4,0.4-0.4,0.7c0,0.3,0.1,0.5,0.3,0.7c0.2,0.2,0.5,0.3,0.8,0.3c0.4,0,0.7-0.1,1.1-0.4
		c0.2-0.2,0.4-0.4,0.5-0.7c0.1-0.2,0.1-0.5,0.1-1V-143.7z"/>
	<path class="st1" d="M1358.8-139.5l2.3,0.3c0,0.3,0.1,0.5,0.3,0.6c0.2,0.1,0.5,0.2,0.9,0.2c0.5,0,0.9-0.1,1.2-0.2
		c0.2-0.1,0.3-0.3,0.4-0.5c0.1-0.2,0.1-0.5,0.1-0.9v-1.1c-0.6,0.8-1.4,1.3-2.3,1.3c-1,0-1.9-0.4-2.5-1.3c-0.5-0.7-0.7-1.6-0.7-2.6
		c0-1.3,0.3-2.3,0.9-3c0.6-0.7,1.4-1,2.3-1c1,0,1.8,0.4,2.4,1.3v-1.1h1.9v7c0,0.9-0.1,1.6-0.2,2.1c-0.2,0.5-0.4,0.8-0.6,1.1
		s-0.6,0.5-1.1,0.6c-0.5,0.1-1,0.2-1.7,0.2c-1.3,0-2.3-0.2-2.8-0.7c-0.6-0.5-0.8-1-0.8-1.7C1358.8-139.3,1358.8-139.4,1358.8-139.5z
		 M1360.7-144.1c0,0.8,0.2,1.4,0.5,1.8c0.3,0.4,0.7,0.6,1.2,0.6c0.5,0,0.9-0.2,1.3-0.6c0.3-0.4,0.5-1,0.5-1.7c0-0.8-0.2-1.4-0.5-1.8
		s-0.8-0.6-1.3-0.6c-0.5,0-0.9,0.2-1.2,0.6C1360.8-145.4,1360.7-144.8,1360.7-144.1z"/>
	<path class="st1" d="M1372.7-142.5l2.1,0.3c-0.3,0.8-0.7,1.3-1.2,1.7c-0.6,0.4-1.3,0.6-2.1,0.6c-1.4,0-2.4-0.4-3-1.3
		c-0.5-0.7-0.8-1.6-0.8-2.7c0-1.3,0.3-2.3,1-3c0.7-0.7,1.5-1.1,2.6-1.1c1.2,0,2.1,0.4,2.7,1.1c0.7,0.8,1,1.9,1,3.5h-5.2
		c0,0.6,0.2,1.1,0.5,1.4c0.3,0.3,0.7,0.5,1.2,0.5c0.3,0,0.6-0.1,0.8-0.3C1372.4-141.8,1372.6-142.1,1372.7-142.5z M1372.8-144.6
		c0-0.6-0.2-1-0.5-1.4c-0.3-0.3-0.7-0.5-1.1-0.5c-0.5,0-0.8,0.2-1.1,0.5s-0.4,0.8-0.4,1.3H1372.8z"/>
</g>
<g class="st0">
	<path class="st1" d="M1114.2-132.7h21.2v24h23.2v-24h21.3V-64h-21.3v-27.8h-23.2V-64h-21.2V-132.7z"/>
	<path class="st1" d="M1189.2-132.7h64.5v17h-21.7V-64h-21.2v-51.8h-21.7V-132.7z"/>
	<path class="st1" d="M1263.1-132.7h27.9l10.8,41.8l10.7-41.8h27.9V-64H1323v-52.4L1309.6-64h-15.7l-13.4-52.4V-64h-17.4V-132.7z"/>
	<path class="st1" d="M1354-132.7h21.2v51.8h33.1V-64H1354V-132.7z"/>
</g>
<g class="st0">
	<path class="st1" d="M850.1-187.7h21.2v51.8h33.1v16.9h-54.4V-187.7z"/>
	<path class="st1" d="M913.9-187.7h27.9l10.8,41.8l10.7-41.8h27.9v68.7h-17.4v-52.4L960.4-119h-15.7l-13.4-52.4v52.4h-17.4V-187.7z"
		/>
	<path class="st1" d="M1004.8-187.7h21.2v24h23.2v-24h21.3v68.7h-21.3v-27.8H1026v27.8h-21.2V-187.7z"/>
	<path class="st1" d="M1079.8-187.7h64.5v17h-21.7v51.8h-21.2v-51.8h-21.7V-187.7z"/>
</g>
</svg>
